<?xml version="1.0" encoding="UTF-8" standalone="no"?>
<svg
   xmlns:dc="http://purl.org/dc/elements/1.1/"
   xmlns:cc="http://creativecommons.org/ns#"
   xmlns:rdf="http://www.w3.org/1999/02/22-rdf-syntax-ns#"
   xmlns:svg="http://www.w3.org/2000/svg"
   xmlns="http://www.w3.org/2000/svg"
   xmlns:sodipodi="http://sodipodi.sourceforge.net/DTD/sodipodi-0.dtd"
   xmlns:inkscape="http://www.inkscape.org/namespaces/inkscape"
   version="1.1"
   x="0px"
   y="0px"
   viewBox="0 0 100 100"
   enable-background="new 0 0 100 100"
   xml:space="preserve"
   id="svg2"
   inkscape:version="0.91 r13725"
   sodipodi:docname="blue_player.svg"><metadata
     id="metadata14"><rdf:RDF><cc:Work
         rdf:about=""><dc:format>image/svg+xml</dc:format><dc:type
           rdf:resource="http://purl.org/dc/dcmitype/StillImage" /><dc:title></dc:title></cc:Work></rdf:RDF></metadata><defs
     id="defs12" /><sodipodi:namedview
     pagecolor="#ffffff"
     bordercolor="#666666"
     borderopacity="1"
     objecttolerance="10"
     gridtolerance="10"
     guidetolerance="10"
     inkscape:pageopacity="0"
     inkscape:pageshadow="2"
     inkscape:window-width="640"
     inkscape:window-height="480"
     id="namedview10"
     showgrid="false"
     inkscape:zoom="2.36"
     inkscape:cx="50"
     inkscape:cy="50"
     inkscape:window-x="383"
     inkscape:window-y="72"
     inkscape:window-maximized="0"
     inkscape:current-layer="svg2" /><g
     id="g4"
     style="fill:#0000ff"><path
       fill="#000000"
       d="M95.388,17.084c-1.43-1.28-3.38-1.99-5.51-1.99c-3.58,0-6.66,1.93-7.16,4.49   c-0.21,1.11-0.26,1.68-0.279,2.06c-0.04,0.43-0.04,0.43-0.91,1.89l-0.65,1.08c-2.36,3.95-2.27,7.2-1.04,9.08l-1.87,2.24   c-0.64-0.21-1.35-0.21-2,0.02l-4.609,1.69c-1.471,0.53-3.83,0.42-5.24-0.24l-15.44-7.27c-1.409-0.67-3.43-0.26-4.47,0.9   l-17.07,18.98c-1.04,1.16-2.8,3.01-3.91,4.12l-7.98,7.989c-1.11,1.11-3.29,2.011-4.85,2.011h-8.06c-1.56,0-2.84,1.279-2.84,2.84   v2.84c0,1.56,1.28,2.84,2.84,2.84h11.58c1.56,0,3.74-0.899,4.85-2.01l8.7-8.7c1.11-1.11,2.88-1.07,3.94,0.07l5.55,5.97   c1.06,1.14,1.93,3.36,1.93,4.92v13.5c0,1.561,1.28,2.84,2.84,2.84h2.85c1.56,0,2.84-1.279,2.84-2.84v-16.85   c0-1.561-0.87-3.78-1.93-4.92l-4.76-5.13c-1.06-1.141-1.18-3.12-0.27-4.391l4.25-5.92c0.91-1.27,1.66-1.03,1.66,0.53l-0.02,5.54   c0,1.56,1.19,3.319,2.64,3.899l5.68,2.271l-1.46,1.74l2.45,2.04l2.12-2.54l1.319,0.529c1.45,0.58,3.08-0.14,3.61-1.609l0.51-1.4   c0.41-1.13,0.05-2.35-0.8-3.08l10.73-12.83l3.899-2.07c1.38-0.73,1.94-2.48,1.25-3.88l-0.069-0.14l2.239-2.68   c0.4,0.09,0.811,0.14,1.25,0.14c2.09,0,4.48-1.07,6.721-3.01l0.96-0.83c1.279-1.11,1.279-1.11,1.71-1.22   c0.359-0.09,0.92-0.24,1.979-0.64c1.75-0.67,2.99-2.54,3.33-4.99C98.758,22.495,98.118,19.114,95.388,17.084z M61.368,55.805   l-2.51-0.9c-1.48-0.53-2.761-2.24-2.851-3.8l-0.399-6.74c-0.091-1.56,1.01-2.34,2.439-1.72l8.55,3.66c0.66,0.29,1.5,0.42,2.36,0.41   L61.368,55.805z M96.438,24.694c-0.23,1.67-1.04,3-2.07,3.39c-0.95,0.37-1.43,0.49-1.76,0.57c-0.88,0.22-1,0.33-2.521,1.66   l-0.95,0.82c-1.88,1.62-3.81,2.52-5.42,2.52c-0.739,0-1.359-0.2-1.8-0.57c-1.21-1.01-1.51-3.77,0.67-7.44l0.65-1.08   c1.04-1.73,1.12-1.87,1.189-2.78c0.03-0.33,0.061-0.83,0.261-1.82c0.3-1.59,2.63-2.87,5.189-2.87c1.63,0,3.11,0.52,4.25,1.54   C96.229,20.194,96.698,22.784,96.438,24.694z"
       id="path6"
       style="fill:#0000ff" /><path
       fill="#000000"
       d="M60.788,32.614c5.07,0,9.19-4.11,9.19-9.18c0-5.08-4.12-9.19-9.19-9.19s-9.19,4.11-9.19,9.19   C51.598,28.504,55.718,32.614,60.788,32.614z"
       id="path8"
       style="fill:#0000ff" /></g></svg>